<?xml version="1.0" encoding="UTF-8" standalone="no"?>
<!-- Created with Inkscape (http://www.inkscape.org/) -->

<svg
   xmlns:dc="http://purl.org/dc/elements/1.1/"
   xmlns:cc="http://creativecommons.org/ns#"
   xmlns:rdf="http://www.w3.org/1999/02/22-rdf-syntax-ns#"
   xmlns:svg="http://www.w3.org/2000/svg"
   xmlns="http://www.w3.org/2000/svg"
   xmlns:sodipodi="http://sodipodi.sourceforge.net/DTD/sodipodi-0.dtd"
   xmlns:inkscape="http://www.inkscape.org/namespaces/inkscape"
   width="128px"
   height="128px"
   viewBox="0 0 128 128"
   version="1.1"
   id="SVGRoot"
   inkscape:version="0.92.1 r15371"
   sodipodi:docname="11.svg">
  <sodipodi:namedview
     id="base"
     pagecolor="#ffffff"
     bordercolor="#666666"
     borderopacity="1.0"
     inkscape:pageopacity="0.0"
     inkscape:pageshadow="2"
     inkscape:zoom="2"
     inkscape:cx="64"
     inkscape:cy="44"
     inkscape:document-units="px"
     inkscape:current-layer="layer1"
     showgrid="false"
     inkscape:window-width="1855"
     inkscape:window-height="1056"
     inkscape:window-x="65"
     inkscape:window-y="24"
     inkscape:window-maximized="1"
     inkscape:grid-bbox="true" />
  <defs
     id="defs335" />
  <metadata
     id="metadata338">
    <rdf:RDF>
      <cc:Work
         rdf:about="">
        <dc:format>image/svg+xml</dc:format>
        <dc:type
           rdf:resource="http://purl.org/dc/dcmitype/StillImage" />
        <dc:title></dc:title>
      </cc:Work>
    </rdf:RDF>
  </metadata>
  <g
     id="layer1"
     inkscape:groupmode="layer"
     inkscape:label="Layer 1">
    <path
       style="fill:#111111;stroke-width:0.99348962"
       d="m 21.529938,100.91799 c 0,-1.359502 3.920128,-6.608152 11.896717,-15.928482 15.583832,-18.209096 14.603288,-16.58494 22.273214,-36.892997 4.666854,-12.35667 7.714112,-19.115393 8.618423,-19.115393 0.915572,0 3.820939,6.696535 8.408548,19.380728 l 7.009606,19.380727 13.368427,15.695095 c 7.352637,8.632302 13.517447,16.117275 13.699587,16.633272 0.54172,1.53467 -3.88517,1.10547 -22.451114,-2.176678 -9.690797,-1.713168 -18.513771,-3.11498 -19.60661,-3.115136 -1.878162,-2.69e-4 -20.368986,2.990764 -32.288412,5.222904 -10.085151,1.88863 -10.928386,1.9593 -10.928386,0.91596 z"
       id="path550"
       inkscape:connector-curvature="0" />
  </g>
</svg>
