<?xml version="1.0" encoding="UTF-8" standalone="no"?>
<!-- Created with Inkscape (http://www.inkscape.org/) -->

<svg
   xmlns:dc="http://purl.org/dc/elements/1.1/"
   xmlns:cc="http://creativecommons.org/ns#"
   xmlns:rdf="http://www.w3.org/1999/02/22-rdf-syntax-ns#"
   xmlns:svg="http://www.w3.org/2000/svg"
   xmlns="http://www.w3.org/2000/svg"
   xmlns:sodipodi="http://sodipodi.sourceforge.net/DTD/sodipodi-0.dtd"
   xmlns:inkscape="http://www.inkscape.org/namespaces/inkscape"
   width="128px"
   height="128px"
   viewBox="0 0 128 128"
   version="1.1"
   id="SVGRoot"
   inkscape:version="0.92.1 r15371"
   sodipodi:docname="14.svg">
  <sodipodi:namedview
     id="base"
     pagecolor="#ffffff"
     bordercolor="#666666"
     borderopacity="1.0"
     inkscape:pageopacity="0.0"
     inkscape:pageshadow="2"
     inkscape:zoom="2"
     inkscape:cx="64"
     inkscape:cy="44"
     inkscape:document-units="px"
     inkscape:current-layer="layer1"
     showgrid="false"
     inkscape:window-width="1855"
     inkscape:window-height="1056"
     inkscape:window-x="65"
     inkscape:window-y="24"
     inkscape:window-maximized="1"
     inkscape:grid-bbox="true" />
  <defs
     id="defs335" />
  <metadata
     id="metadata338">
    <rdf:RDF>
      <cc:Work
         rdf:about="">
        <dc:format>image/svg+xml</dc:format>
        <dc:type
           rdf:resource="http://purl.org/dc/dcmitype/StillImage" />
        <dc:title></dc:title>
      </cc:Work>
    </rdf:RDF>
  </metadata>
  <g
     id="layer1"
     inkscape:groupmode="layer"
     inkscape:label="Layer 1">
    <path
       style="fill:#151515;stroke-width:0.99739587"
       d="m 48.539054,114.20989 -15.459636,-2.74793 -11.470053,2.04586 c -16.4908021,2.94137 -18.9505209,3.22802 -18.9505209,2.20846 0,-0.50103 4.2719033,-6.05373 9.4931179,-12.33934 9.729674,-11.713161 10.277509,-12.735522 16.949671,-31.631157 2.927299,-8.290144 4.225731,-10.372402 12.98463,-20.823066 10.271355,-12.255246 9.314523,-10.436013 19.572445,-37.213297 1.442955,-3.7666884 2.997929,-1.238262 7.909454,12.860965 4.021047,11.542984 4.871755,13.080843 11.81151,21.352133 4.113107,4.902291 8.901181,10.301086 10.640167,11.997322 2.309227,2.252459 4.538199,6.78478 8.266291,16.808401 2.80746,7.548385 5.1148,14.056393 5.12742,14.46224 0.0126,0.405847 4.26987,5.675014 9.46059,11.709259 8.54451,9.93305 10.85628,13.49837 8.71895,13.44679 -0.41142,-0.01 -7.03164,-1.11401 -14.71159,-2.45351 l -13.963539,-2.43546 -13.963542,2.47966 c -7.679948,1.36382 -14.636784,2.60138 -15.459636,2.75013 -0.822851,0.14875 -8.45293,-0.9661 -16.955729,-2.47746 z m 26.471999,-11.79965 c 7.986929,-9.223634 8.958048,-10.832824 13.057149,-21.636315 2.435657,-6.419356 4.296029,-12.35925 4.13416,-13.199764 -0.179178,-0.9304 -3.802321,2.617189 -9.26201,9.068867 -8.464546,10.002497 -9.20668,11.260238 -13.226939,22.416477 -4.179206,11.597325 -4.666295,13.315495 -3.774837,13.315495 0.244087,0 4.326702,-4.48414 9.072477,-9.96476 z m -15.500645,5.4633 c 0,-0.83009 -1.704687,-6.13097 -3.788193,-11.779718 -3.260614,-8.840096 -4.745403,-11.373313 -10.661257,-18.189302 -7.837919,-9.030506 -9.032116,-9.87469 -8.216503,-5.808283 1.655065,8.251655 7.204344,20.823546 11.155109,25.271896 2.293384,2.582228 5.42597,6.341897 6.961301,8.354827 2.959711,3.88038 4.549543,4.63189 4.549543,2.15058 z m 13.35179,-42.186468 c 4.87493,-0.927173 8.828358,-2.134599 8.785395,-2.683167 -0.04296,-0.548567 -4.031541,-1.795135 -8.863509,-2.770149 -8.279446,-1.67066 -9.331073,-1.677863 -18.260655,-0.12508 -10.0641,1.750065 -12.771994,2.925103 -8.871482,3.849609 6.308525,1.495255 15.510587,3.337826 16.850649,3.374081 0.822851,0.02226 5.484672,-0.71812 10.359602,-1.645294 z"
       id="path646"
       inkscape:connector-curvature="0" />
  </g>
</svg>
