<?xml version="1.0" encoding="UTF-8" standalone="no"?>
<!-- Created with Inkscape (http://www.inkscape.org/) -->

<svg
   xmlns:dc="http://purl.org/dc/elements/1.1/"
   xmlns:cc="http://creativecommons.org/ns#"
   xmlns:rdf="http://www.w3.org/1999/02/22-rdf-syntax-ns#"
   xmlns:svg="http://www.w3.org/2000/svg"
   xmlns="http://www.w3.org/2000/svg"
   xmlns:sodipodi="http://sodipodi.sourceforge.net/DTD/sodipodi-0.dtd"
   xmlns:inkscape="http://www.inkscape.org/namespaces/inkscape"
   width="128px"
   height="128px"
   viewBox="0 0 128 128"
   version="1.1"
   id="SVGRoot"
   inkscape:version="0.92.1 r15371"
   sodipodi:docname="15.svg">
  <sodipodi:namedview
     id="base"
     pagecolor="#ffffff"
     bordercolor="#666666"
     borderopacity="1.0"
     inkscape:pageopacity="0.0"
     inkscape:pageshadow="2"
     inkscape:zoom="2"
     inkscape:cx="64"
     inkscape:cy="44"
     inkscape:document-units="px"
     inkscape:current-layer="layer1"
     showgrid="false"
     inkscape:window-width="1855"
     inkscape:window-height="1056"
     inkscape:window-x="65"
     inkscape:window-y="24"
     inkscape:window-maximized="1"
     inkscape:grid-bbox="true" />
  <defs
     id="defs335" />
  <metadata
     id="metadata338">
    <rdf:RDF>
      <cc:Work
         rdf:about="">
        <dc:format>image/svg+xml</dc:format>
        <dc:type
           rdf:resource="http://purl.org/dc/dcmitype/StillImage" />
        <dc:title></dc:title>
      </cc:Work>
    </rdf:RDF>
  </metadata>
  <g
     id="layer1"
     inkscape:groupmode="layer"
     inkscape:label="Layer 1">
    <path
       style="fill:#252525;stroke-width:0.99739587"
       d="M 41.558585,115.33412 C 30.038662,108.57855 18.03251,101.46537 14.878245,99.52706 L 9.1432192,96.002867 V 64.498697 32.994528 L 14.878245,29.471899 C 25.509451,22.941885 63.345758,1.16406 64.059651,1.16406 c 0.389198,0 2.89134,1.3746563 5.560315,3.0547918 2.668976,1.6801355 13.945176,8.3003502 25.058224,14.7115892 11.11305,6.411238 21.09947,12.437854 22.19206,13.392478 1.90244,1.662229 1.98651,3.023851 1.98651,32.175778 0,29.151927 -0.0841,30.513549 -1.98651,32.175778 -1.09259,0.954625 -11.07901,6.981235 -22.19206,13.392475 -11.113048,6.41124 -22.389248,13.03146 -25.058224,14.71159 -2.668975,1.68013 -5.361944,3.00612 -5.984375,2.94663 -0.622431,-0.0595 -10.557084,-5.63547 -22.077006,-12.39105 z m 45.325062,-6.79018 c 12.727551,-7.31777 24.006163,-14.045794 25.063563,-14.951179 1.81204,-1.551517 1.92257,-3.224121 1.92257,-29.094064 0,-25.869943 -0.11053,-27.542547 -1.92257,-29.094064 -1.0574,-0.905385 -12.352374,-7.642821 -25.099921,-14.972081 L 63.669929,7.1066264 50.619465,14.61701 C 43.44171,18.747722 32.407478,25.162398 26.098949,28.871846 l -11.470053,6.74445 V 64.499013 93.38173 l 10.971355,6.430639 c 15.029577,8.809281 37.843404,22.036591 38.007665,22.036591 0.0741,0 10.548181,-5.98726 23.275731,-13.30502 z M 36.072907,98.441026 c 0,-0.257306 2.468555,-6.779205 5.485678,-14.49311 3.017122,-7.713904 5.485677,-14.893454 5.485677,-15.954554 0,-1.905375 -0.993554,-2.637826 -20.886445,-15.397534 -6.401235,-4.105883 -7.173545,-4.899186 -5.617379,-5.77006 1.226502,-0.686385 4.582672,-0.653371 10.481337,0.103102 4.772413,0.612038 11.68593,1.112795 15.363372,1.112795 7.918032,0 7.159101,1.097908 11.720693,-16.955729 1.732575,-6.857097 3.597326,-13.324667 4.143892,-14.372378 0.95581,-1.832187 1.032686,-1.835368 2.013194,-0.0833 0.560689,1.001897 1.351953,3.2056 1.758364,4.897118 2.203817,9.172478 7.027838,24.02213 8.177124,25.171417 1.289812,1.289811 6.908806,1.078366 28.949366,-1.089374 6.7473,-0.663614 6.0818,1.064979 -2.50638,6.510077 -3.970024,2.517094 -10.247821,6.49706 -13.950653,8.844369 -3.702832,2.347311 -6.732422,4.855296 -6.732422,5.573304 0,0.718006 2.496653,7.647113 5.548116,15.398014 3.051464,7.750901 5.407812,14.797572 5.236329,15.659268 C 90.514568,98.741154 88.291885,97.45003 82.451815,92.778356 69.16187,82.147269 64.771846,78.960937 63.414625,78.960937 c -0.712749,0 -4.126625,2.386488 -7.586391,5.303306 C 40.279837,97.372602 36.072907,100.39157 36.072907,98.441026 Z"
       id="path678"
       inkscape:connector-curvature="0" />
  </g>
</svg>
