<?xml version="1.0" encoding="UTF-8" standalone="no"?>
<!-- Created with Inkscape (http://www.inkscape.org/) -->

<svg
   xmlns:dc="http://purl.org/dc/elements/1.1/"
   xmlns:cc="http://creativecommons.org/ns#"
   xmlns:rdf="http://www.w3.org/1999/02/22-rdf-syntax-ns#"
   xmlns:svg="http://www.w3.org/2000/svg"
   xmlns="http://www.w3.org/2000/svg"
   xmlns:sodipodi="http://sodipodi.sourceforge.net/DTD/sodipodi-0.dtd"
   xmlns:inkscape="http://www.inkscape.org/namespaces/inkscape"
   width="256"
   height="128"
   viewBox="0 0 67.733332 33.866668"
   version="1.1"
   id="svg8"
   inkscape:version="0.92.1 r15371"
   sodipodi:docname="14.svg">
  <defs
     id="defs2" />
  <sodipodi:namedview
     id="base"
     pagecolor="#ffffff"
     bordercolor="#666666"
     borderopacity="1.0"
     inkscape:pageopacity="0.0"
     inkscape:pageshadow="2"
     inkscape:zoom="3.959798"
     inkscape:cx="107.05485"
     inkscape:cy="38.661822"
     inkscape:document-units="mm"
     inkscape:current-layer="layer1"
     showgrid="false"
     units="px"
     inkscape:pagecheckerboard="true"
     inkscape:window-width="1855"
     inkscape:window-height="1056"
     inkscape:window-x="65"
     inkscape:window-y="1104"
     inkscape:window-maximized="1" />
  <metadata
     id="metadata5">
    <rdf:RDF>
      <cc:Work
         rdf:about="">
        <dc:format>image/svg+xml</dc:format>
        <dc:type
           rdf:resource="http://purl.org/dc/dcmitype/StillImage" />
        <dc:title></dc:title>
      </cc:Work>
    </rdf:RDF>
  </metadata>
  <g
     inkscape:label="Layer 1"
     inkscape:groupmode="layer"
     id="layer1"
     transform="translate(0,-263.13332)">
    <path
       inkscape:connector-curvature="0"
       id="path5480"
       d="m 56.133227,284.66198 c -0.04005,-0.10437 -0.0551,-2.36937 -0.03344,-5.03332 l 0.03938,-4.84354 4.340188,-0.0395 c 3.550695,-0.0323 4.37134,-0.002 4.511442,0.16686 0.123031,0.14825 0.160174,1.56558 0.1319,5.03332 l -0.03936,4.82696 -4.438642,0.0395 c -3.485237,0.031 -4.454284,-10e-4 -4.511466,-0.15028 z"
       style="fill:#f80909;fill-opacity:1;stroke-width:0.14906949" />
    <path
       inkscape:connector-curvature="0"
       id="path5488"
       d="m 45.431006,284.74792 c -0.05466,-0.0547 -0.09938,-2.26012 -0.09938,-4.90103 0,-3.88583 0.03899,-4.83402 0.204404,-4.9713 0.144904,-0.12026 1.457528,-0.15812 4.509354,-0.13006 l 4.304948,0.0396 0.03925,5.03109 0.03925,5.03109 H 49.97961 c -2.447073,0 -4.493945,-0.0447 -4.548603,-0.0994 z"
       style="fill:#f80909;fill-opacity:1;stroke-width:0.14906949" />
    <path
       inkscape:connector-curvature="0"
       id="path5492"
       d="m 24.199043,279.81621 0.03925,-5.03109 h 4.39755 4.39755 l 0.03925,5.03109 0.03925,5.03109 h -4.476049 -4.47605 z"
       style="fill:#f80909;fill-opacity:1;stroke-width:0.14906949" />
    <path
       inkscape:connector-curvature="0"
       id="path5490"
       d="m 34.81629,284.66198 c -0.04005,-0.10437 -0.0551,-2.36937 -0.03344,-5.03332 l 0.03938,-4.84354 4.173945,-0.0418 c 2.29567,-0.023 4.325781,-0.005 4.511357,0.0406 l 0.337413,0.0824 -0.03927,4.95321 -0.03927,4.95322 -4.438642,0.0395 c -3.485237,0.031 -4.454284,-0.001 -4.511464,-0.15028 z"
       style="fill:#f80909;fill-opacity:1;stroke-width:0.14906949" />
    <path
       inkscape:connector-curvature="0"
       id="path5494"
       d="m 13.532311,284.7501 c -0.05586,-0.0558 -0.101556,-2.29688 -0.101556,-4.98005 0,-4.31104 0.02743,-4.88903 0.235796,-4.96898 0.354136,-0.1359 8.455598,-0.10444 8.673178,0.0337 0.146923,0.0933 0.179747,1.20055 0.14907,5.02882 l -0.03934,4.90921 -4.407795,0.0395 c -2.424288,0.0217 -4.453497,-0.006 -4.509353,-0.0621 z"
       style="fill:#f80909;fill-opacity:1;stroke-width:0.14906949" />
    <path
       inkscape:connector-curvature="0"
       id="path5496"
       d="m 2.8821028,279.8184 0.039253,-5.03328 4.3401877,-0.0395 c 3.5506945,-0.0323 4.3713395,-0.002 4.5114425,0.16686 0.123032,0.14825 0.160173,1.56558 0.131897,5.03332 l -0.03936,4.82696 -4.5113374,0.0395 -4.5113376,0.0394 z"
       style="fill:#f80909;stroke-width:0.14906949" />
    <path
       inkscape:connector-curvature="0"
       id="path5482"
       d="M 1.2754035,286.30107 C 1.236011,286.1984 1.2212882,283.2299 1.242686,279.70441 l 0.038905,-6.40999 32.685038,-0.0376 32.685037,-0.0376 -0.03882,6.59666 -0.03882,6.59665 -32.613502,0.0376 c -26.0122639,0.03 -32.6279981,-1.8e-4 -32.6851238,-0.14907 z m 10.6294795,-6.35526 c 0.02828,-3.46774 -0.0089,-4.88507 -0.131897,-5.03332 -0.140103,-0.16881 -0.960748,-0.19917 -4.5114425,-0.16686 l -4.3401877,0.0395 -0.039253,5.03328 -0.039253,5.03328 4.5113376,-0.0394 4.5113376,-0.0395 z m 10.583916,-0.0822 c 0.03068,-3.82827 -0.0021,-4.93555 -0.14907,-5.02882 -0.21758,-0.13811 -8.319042,-0.16957 -8.673178,-0.0337 -0.208368,0.0799 -0.235796,0.65794 -0.235796,4.96898 0,2.68317 0.0457,4.9242 0.101556,4.98005 0.05586,0.0559 2.085065,0.0838 4.509353,0.0621 l 4.407795,-0.0395 z m 10.583845,-0.0473 -0.03925,-5.03109 h -4.39755 -4.39755 l -0.03925,5.03109 -0.03925,5.03109 h 4.47605 4.476049 z m 10.733026,0.003 0.03927,-4.95321 -0.337413,-0.0824 c -0.185576,-0.0453 -2.215687,-0.0636 -4.511357,-0.0406 l -4.173945,0.0418 -0.03938,4.84354 c -0.02167,2.66395 -0.0066,4.92895 0.03344,5.03332 0.05718,0.14901 1.026227,0.18129 4.511464,0.15028 l 4.438642,-0.0395 z m 10.58391,-0.003 -0.03925,-5.03109 -4.304948,-0.0396 c -3.051826,-0.0281 -4.36445,0.01 -4.509354,0.13006 -0.165418,0.13728 -0.204404,1.08547 -0.204404,4.9713 0,2.64091 0.04472,4.84638 0.09938,4.90103 0.05466,0.0547 2.10153,0.0994 4.548603,0.0994 h 4.449222 z m 10.733114,0.1296 c 0.02827,-3.46774 -0.0089,-4.88507 -0.1319,-5.03332 -0.140102,-0.16881 -0.960747,-0.19917 -4.511442,-0.16686 l -4.340188,0.0395 -0.03938,4.84354 c -0.02167,2.66395 -0.0066,4.92895 0.03344,5.03332 0.05718,0.14901 1.026229,0.18129 4.511466,0.15028 l 4.438642,-0.0395 z"
       style="fill:#a6a3a3;stroke-width:0.14906949" />
  </g>
</svg>
