<?xml version="1.0" encoding="UTF-8" standalone="no"?>
<!-- Created with Inkscape (http://www.inkscape.org/) -->

<svg
   xmlns:dc="http://purl.org/dc/elements/1.1/"
   xmlns:cc="http://creativecommons.org/ns#"
   xmlns:rdf="http://www.w3.org/1999/02/22-rdf-syntax-ns#"
   xmlns:svg="http://www.w3.org/2000/svg"
   xmlns="http://www.w3.org/2000/svg"
   xmlns:sodipodi="http://sodipodi.sourceforge.net/DTD/sodipodi-0.dtd"
   xmlns:inkscape="http://www.inkscape.org/namespaces/inkscape"
   width="256"
   height="128"
   viewBox="0 0 67.733332 33.866668"
   version="1.1"
   id="svg8"
   inkscape:version="0.92.1 r15371"
   sodipodi:docname="15.svg">
  <defs
     id="defs2" />
  <sodipodi:namedview
     id="base"
     pagecolor="#ffffff"
     bordercolor="#666666"
     borderopacity="1.0"
     inkscape:pageopacity="0.0"
     inkscape:pageshadow="2"
     inkscape:zoom="1.979899"
     inkscape:cx="-16.871229"
     inkscape:cy="75.427991"
     inkscape:document-units="mm"
     inkscape:current-layer="layer1"
     showgrid="false"
     units="px"
     inkscape:pagecheckerboard="true"
     inkscape:window-width="1855"
     inkscape:window-height="1056"
     inkscape:window-x="65"
     inkscape:window-y="1104"
     inkscape:window-maximized="1" />
  <metadata
     id="metadata5">
    <rdf:RDF>
      <cc:Work
         rdf:about="">
        <dc:format>image/svg+xml</dc:format>
        <dc:type
           rdf:resource="http://purl.org/dc/dcmitype/StillImage" />
        <dc:title></dc:title>
      </cc:Work>
    </rdf:RDF>
  </metadata>
  <g
     inkscape:label="Layer 1"
     inkscape:groupmode="layer"
     id="layer1"
     transform="translate(0,-263.13332)">
    <path
       inkscape:connector-curvature="0"
       id="path3768-3"
       d="m 2.588407,292.37351 c -0.055931,-0.0559 -0.1016932,-5.3206 -0.1016932,-11.69928 0,-11.31062 0.00727,-11.60147 0.294014,-11.75493 0.4655304,-0.24914 62.6483012,-0.21691 62.9878152,0.0326 0.240014,0.17643 0.255672,1.02118 0.219056,11.81827 l -0.03943,11.62827 -31.629032,0.0384 c -17.395969,0.0211 -31.6747957,-0.007 -31.730727,-0.0633 z"
       style="fill:#a4a2a1;stroke-width:0.15200348" />
    <path
       style="fill:#f60c0c;fill-opacity:1;stroke-width:0.15200348"
       d="m 45.534099,279.52379 c -0.260343,-0.26034 -0.260343,-8.79906 0,-9.0594 0.259894,-0.2599 8.191499,-0.2599 8.451394,0 0.260342,0.26034 0.260342,8.79906 0,9.0594 -0.259895,0.2599 -8.1915,0.2599 -8.451394,0 z"
       id="path4791"
       inkscape:connector-curvature="0" />
    <path
       style="fill:#f60c0c;fill-opacity:1;stroke-width:0.15200348"
       d="m 55.870335,279.52379 c -0.260342,-0.26034 -0.260342,-8.79906 0,-9.0594 0.259895,-0.2599 8.1915,-0.2599 8.451395,0 0.260344,0.26034 0.260344,8.79906 0,9.0594 -0.259895,0.2599 -8.1915,0.2599 -8.451395,0 z"
       id="path3766-5"
       inkscape:connector-curvature="0" />
    <path
       style="fill:#062e5f;stroke-width:0.15200348"
       d="m 4.1945487,290.97979 c -0.1497002,-0.095 -0.1833171,-1.17865 -0.1520037,-4.89978 l 0.040205,-4.77777 4.2456108,-0.0405 c 3.2952962,-0.0314 4.2729552,0.003 4.3677722,0.152 0.06719,0.10586 0.12321,2.22252 0.12449,4.70371 0.002,3.90054 -0.03001,4.54358 -0.236535,4.75011 -0.205108,0.2051 -0.80119,0.23853 -4.2180971,0.23653 -2.1885786,-10e-4 -4.065728,-0.0572 -4.1714425,-0.12434 z"
       id="path4825"
       inkscape:connector-curvature="0" />
    <path
       style="fill:#062e5f;stroke-width:0.15200348"
       d="m 14.530785,290.97979 c -0.1497,-0.095 -0.183317,-1.17865 -0.152003,-4.89978 l 0.04021,-4.77777 4.24561,-0.0405 c 3.295296,-0.0314 4.272955,0.003 4.367773,0.152 0.06719,0.10586 0.12321,2.2592 0.12449,4.78522 0.0022,4.38643 -0.01088,4.59982 -0.291687,4.75011 -0.349405,0.18699 -8.043514,0.21532 -8.334388,0.0307 z"
       id="path4823"
       inkscape:connector-curvature="0" />
    <path
       style="fill:#062e5f;stroke-width:0.15200348"
       d="m 24.847613,290.8982 c -0.122871,-0.14805 -0.161212,-1.56531 -0.132616,-4.90211 l 0.04023,-4.69385 4.245611,-0.0405 c 3.295295,-0.0314 4.272955,0.003 4.367773,0.152 0.06719,0.10586 0.123209,2.2592 0.124489,4.78522 0.0021,4.38643 -0.01087,4.59982 -0.291687,4.75011 -0.180999,0.0969 -1.809834,0.15735 -4.237484,0.15735 -3.153706,0 -3.978088,-0.0417 -4.116312,-0.20826 z"
       id="path4821"
       inkscape:connector-curvature="0" />
    <path
       style="fill:#062e5f;fill-opacity:1;stroke-width:0.15200348"
       d="m 35.18385,290.8982 c -0.122872,-0.14805 -0.161213,-1.56531 -0.132617,-4.90211 l 0.04023,-4.69385 h 4.3321 4.332099 l 0.04039,4.7121 c 0.03681,4.29506 0.01744,4.72893 -0.219057,4.90211 -0.393501,0.28818 -8.152836,0.2713 -8.393144,-0.0183 z"
       id="path4779"
       inkscape:connector-curvature="0" />
    <path
       style="fill:#062e5f;fill-opacity:1;stroke-width:0.15200348"
       d="m 45.606362,290.91646 c -0.236485,-0.17319 -0.255874,-0.60706 -0.219057,-4.90211 l 0.04039,-4.71211 h 4.3321 4.3321 l 0.04039,4.71211 c 0.03681,4.29505 0.01744,4.72892 -0.219057,4.90211 -0.191587,0.1403 -1.277953,0.19 -4.153434,0.19 -2.875481,0 -3.961847,-0.0497 -4.153434,-0.19 z"
       id="path4777"
       inkscape:connector-curvature="0" />
    <path
       style="fill:#062e5f;fill-opacity:1;stroke-width:0.15200348"
       d="m 55.942598,290.91646 c -0.236485,-0.17319 -0.255871,-0.60706 -0.219057,-4.90211 l 0.04039,-4.71211 h 4.332099 4.3321 l 0.04039,4.71211 c 0.03682,4.29505 0.01744,4.72892 -0.219056,4.90211 -0.191588,0.1403 -1.277954,0.19 -4.153435,0.19 -2.875481,0 -3.961847,-0.0497 -4.153434,-0.19 z"
       id="path4775"
       inkscape:connector-curvature="0" />
    <path
       style="fill:#f60c0c;fill-opacity:1;stroke-width:0.15200348"
       d="m 4.1967529,279.60553 c -0.1460397,-0.0589 -0.1900044,-1.12513 -0.1900044,-4.60784 0,-3.99162 0.028631,-4.54216 0.2404372,-4.62344 0.4246343,-0.16295 7.9664143,-0.10368 8.2817503,0.0651 0.280222,0.14997 0.294014,0.36245 0.294014,4.5297 0,3.19804 -0.04899,4.42134 -0.182404,4.55475 -0.133337,0.13334 -1.268001,0.17918 -4.2180965,0.17041 -2.2196308,-0.007 -4.1211941,-0.0465 -4.2256966,-0.0887 z"
       id="path4819"
       inkscape:connector-curvature="0" />
    <path
       style="fill:#f60c0c;fill-opacity:1;stroke-width:0.15200348"
       d="m 14.53299,279.60553 c -0.14604,-0.0589 -0.190005,-1.12513 -0.190005,-4.60784 0,-3.99162 0.02863,-4.54216 0.240437,-4.62344 0.424635,-0.16295 7.966415,-0.10368 8.281751,0.0651 0.280223,0.14997 0.294014,0.36245 0.294014,4.5297 0,3.19804 -0.04899,4.42134 -0.182404,4.55475 -0.133338,0.13334 -1.268001,0.17918 -4.218097,0.17041 -2.219631,-0.007 -4.121194,-0.0465 -4.225696,-0.0887 z"
       id="path4817"
       inkscape:connector-curvature="0" />
    <path
       style="fill:#f60c0c;fill-opacity:1;stroke-width:0.15200348"
       d="m 24.869226,279.60553 c -0.268344,-0.10828 -0.275631,-8.87311 -0.0076,-9.14114 0.236942,-0.23694 7.900846,-0.25997 8.339782,-0.0251 0.280226,0.14997 0.294016,0.36246 0.294016,4.52971 0,3.19804 -0.04899,4.42134 -0.182407,4.55475 -0.133336,0.13334 -1.267999,0.17918 -4.218093,0.17041 -2.219632,-0.007 -4.121195,-0.0465 -4.225698,-0.0887 z"
       id="path3762-2"
       inkscape:connector-curvature="0" />
    <path
       style="fill:#f60c0c;fill-opacity:1;stroke-width:0.15200348"
       d="m 35.205464,279.60553 c -0.268346,-0.10828 -0.275632,-8.87311 -0.0076,-9.14114 0.259895,-0.2599 8.1915,-0.2599 8.451395,0 0.260342,0.26034 0.260342,8.79906 0,9.0594 -0.133339,0.13334 -1.268002,0.17918 -4.218098,0.17041 -2.21963,-0.007 -4.121193,-0.0465 -4.225695,-0.0887 z"
       id="path4793"
       inkscape:connector-curvature="0" />
  </g>
</svg>
