<?xml version="1.0" encoding="UTF-8" standalone="no"?>
<!-- Created with Inkscape (http://www.inkscape.org/) -->

<svg
   xmlns:dc="http://purl.org/dc/elements/1.1/"
   xmlns:cc="http://creativecommons.org/ns#"
   xmlns:rdf="http://www.w3.org/1999/02/22-rdf-syntax-ns#"
   xmlns:svg="http://www.w3.org/2000/svg"
   xmlns="http://www.w3.org/2000/svg"
   xmlns:sodipodi="http://sodipodi.sourceforge.net/DTD/sodipodi-0.dtd"
   xmlns:inkscape="http://www.inkscape.org/namespaces/inkscape"
   width="256"
   height="128"
   viewBox="0 0 67.733332 33.866668"
   version="1.1"
   id="svg8"
   inkscape:version="0.92.1 r15371"
   sodipodi:docname="16.svg">
  <defs
     id="defs2" />
  <sodipodi:namedview
     id="base"
     pagecolor="#ffffff"
     bordercolor="#666666"
     borderopacity="1.0"
     inkscape:pageopacity="0.0"
     inkscape:pageshadow="2"
     inkscape:zoom="3.959798"
     inkscape:cx="149.5279"
     inkscape:cy="32.999857"
     inkscape:document-units="mm"
     inkscape:current-layer="g3760"
     showgrid="false"
     units="px"
     inkscape:pagecheckerboard="true"
     inkscape:window-width="1855"
     inkscape:window-height="1056"
     inkscape:window-x="65"
     inkscape:window-y="1104"
     inkscape:window-maximized="1" />
  <metadata
     id="metadata5">
    <rdf:RDF>
      <cc:Work
         rdf:about="">
        <dc:format>image/svg+xml</dc:format>
        <dc:type
           rdf:resource="http://purl.org/dc/dcmitype/StillImage" />
        <dc:title></dc:title>
      </cc:Work>
    </rdf:RDF>
  </metadata>
  <g
     inkscape:label="Layer 1"
     inkscape:groupmode="layer"
     id="layer1"
     transform="translate(0,-263.13332)">
    <g
       id="g3760"
       transform="matrix(0.26458333,0,0,0.26458333,0.25014905,248.81803)">
      <path
         style="fill:#a4a2a1;stroke-width:0.57450134"
         d="m 7.9803632,163.76207 c -0.2113938,-0.2114 -0.3843524,-20.10938 -0.3843524,-44.21775 0,-42.748803 0.027495,-43.848097 1.1112341,-44.428096 C 10.46673,74.174576 245.48823,74.29641 246.77143,75.239636 c 0.90714,0.666796 0.96632,3.859571 0.82793,44.667474 l -0.14904,43.94935 -119.5428,0.14498 c -65.748543,0.0797 -119.7157629,-0.028 -119.9271568,-0.23937 z"
         id="path3768"
         inkscape:connector-curvature="0" />
      <path
         style="fill:#062e5f;stroke-width:0.57450134"
         d="m 14.05082,158.49447 c -0.565796,-0.35914 -0.692852,-4.45475 -0.574502,-18.51887 l 0.151957,-18.05773 16.046403,-0.1529 c 12.454663,-0.11867 16.14975,0.01 16.508116,0.5745 0.253943,0.40007 0.465673,8.40007 0.470511,17.77778 0.0076,14.74219 -0.113417,17.17259 -0.893991,17.95316 -0.775209,0.77521 -3.02812,0.90155 -15.942412,0.894 -8.271793,-0.005 -15.366531,-0.21632 -15.766082,-0.46994 z"
         id="path4545" />
      <path
         style="fill:#062e5f;stroke-width:0.57450134"
         d="M 53.116911,158.49447 C 52.551116,158.13533 52.42406,154.03972 52.54241,139.9756 l 0.151957,-18.05773 16.046402,-0.1529 c 12.454661,-0.11867 16.14975,0.01 16.508118,0.5745 0.253942,0.40007 0.465674,8.5387 0.470511,18.08585 0.0084,16.57863 -0.04113,17.38517 -1.102439,17.95317 -1.320583,0.70675 -30.400682,0.81383 -31.500048,0.11598 z"
         id="path4543" />
      <path
         style="fill:#062e5f;stroke-width:0.57450134"
         d="m 92.109646,158.18608 c -0.464393,-0.55956 -0.609305,-5.91613 -0.501224,-18.52767 l 0.152036,-17.74054 16.046402,-0.1529 c 12.45466,-0.11867 16.14975,0.01 16.50812,0.5745 0.25394,0.40007 0.46567,8.5387 0.47051,18.08585 0.008,16.57863 -0.0411,17.38517 -1.10244,17.95317 -0.68409,0.36611 -6.84032,0.59471 -16.01569,0.59471 -11.919518,0 -15.035291,-0.15764 -15.557714,-0.78712 z"
         id="path4541" />
      <path
         style="fill:#062e5f;stroke-width:0.57450134"
         d="m 53.125243,115.50512 c -0.551961,-0.22272 -0.718127,-4.25245 -0.718127,-17.415468 0,-15.086425 0.108209,-17.167222 0.908739,-17.474414 1.604917,-0.615864 30.109284,-0.391845 31.301104,0.245999 1.05911,0.566817 1.111235,1.369912 1.111235,17.120139 0,12.087104 -0.185156,16.710584 -0.689402,17.214824 -0.503952,0.50395 -4.792444,0.6772 -15.942412,0.64405 -8.389156,-0.025 -15.576168,-0.17575 -15.971137,-0.33513 z"
         id="path4537" />
      <path
         style="fill:#062e5f;stroke-width:0.57450134"
         d="m 14.059151,115.50512 c -0.551961,-0.22272 -0.718127,-4.25245 -0.718127,-17.415468 0,-15.086425 0.10821,-17.167222 0.908739,-17.474414 1.604917,-0.615864 30.109282,-0.391845 31.301105,0.245999 1.059107,0.566817 1.111234,1.369912 1.111234,17.120139 0,12.087104 -0.185156,16.710584 -0.689401,17.214824 -0.503953,0.50395 -4.792445,0.6772 -15.942413,0.64405 -8.389156,-0.025 -15.576167,-0.17575 -15.971137,-0.33513 z"
         id="path4539" />
      <path
         style="fill:#062e5f;stroke-width:0.57450134"
         d="m 92.191334,115.50512 c -1.014213,-0.40924 -1.041755,-33.536167 -0.02872,-34.549196 0.895527,-0.895528 29.861466,-0.982541 31.520436,-0.09469 1.05912,0.566817 1.11124,1.369912 1.11124,17.120139 0,12.087107 -0.18516,16.710587 -0.68941,17.214827 -0.50395,0.50395 -4.79244,0.6772 -15.9424,0.64405 -8.389159,-0.025 -15.576171,-0.17575 -15.971141,-0.33513 z"
         id="path3762" />
      <path
         style="fill:#f7b634;stroke-width:0.57450134"
         d="m 131.25743,115.50512 c -1.01422,-0.40924 -1.04176,-33.536167 -0.0287,-34.549196 0.98228,-0.982279 30.96,-0.982279 31.94228,0 0.98397,0.983976 0.98397,33.256296 0,34.240276 -0.50396,0.50395 -4.79245,0.6772 -15.94242,0.64405 -8.38915,-0.025 -15.57616,-0.17575 -15.97113,-0.33513 z"
         id="path4515" />
      <path
         style="fill:#f7b634;stroke-width:0.57450134"
         d="m 209.36088,115.1962 c -0.98397,-0.98398 -0.98397,-33.2563 0,-34.240276 0.98228,-0.982279 30.96,-0.982279 31.94228,0 0.98398,0.983976 0.98398,33.256296 0,34.240276 -0.98228,0.98228 -30.96,0.98228 -31.94228,0 z"
         id="path3766" />
      <path
         style="fill:#f60c0c;stroke-width:0.57450134"
         d="m 131.17574,158.18608 c -0.4644,-0.55956 -0.60931,-5.91613 -0.50123,-18.52767 l 0.15204,-17.74054 h 16.37329 16.37329 l 0.15266,17.80954 c 0.13914,16.23327 0.0659,17.87309 -0.82793,18.52766 -1.48725,1.08917 -30.81387,1.02539 -31.72212,-0.069 z"
         id="path4503" />
      <path
         style="fill:#f60c0c;stroke-width:0.57450134"
         d="m 170.56791,158.25508 c -0.8938,-0.65457 -0.96708,-2.29439 -0.82793,-18.52766 l 0.15266,-17.80954 h 16.37329 16.37329 l 0.15266,17.80954 c 0.13914,16.23327 0.0659,17.87309 -0.82793,18.52766 -0.72411,0.5303 -4.83006,0.71813 -15.69802,0.71813 -10.86796,0 -14.97391,-0.18783 -15.69802,-0.71813 z"
         id="path4501" />
      <path
         style="fill:#f60c0c;stroke-width:0.57450134"
         d="m 209.634,158.25508 c -0.8938,-0.65457 -0.96707,-2.29439 -0.82793,-18.52766 l 0.15266,-17.80954 h 16.37329 16.37329 l 0.15266,17.80954 c 0.13915,16.23327 0.0659,17.87309 -0.82793,18.52766 -0.72411,0.5303 -4.83006,0.71813 -15.69802,0.71813 -10.86796,0 -14.97391,-0.18783 -15.69802,-0.71813 z"
         id="path4499" />
      <path
         style="fill:#f7b634;stroke-width:0.57450134"
         d="m 170.29479,115.1962 c -0.98397,-0.98398 -0.98397,-33.2563 0,-34.240276 0.98228,-0.982279 30.96,-0.982279 31.94228,0 0.98397,0.983976 0.98397,33.256296 0,34.240276 -0.98228,0.98228 -30.96,0.98228 -31.94228,0 z"
         id="path4513" />
    </g>
  </g>
</svg>
