<?xml version="1.0" encoding="UTF-8" standalone="no"?>
<!-- Created with Inkscape (http://www.inkscape.org/) -->

<svg
   xmlns:dc="http://purl.org/dc/elements/1.1/"
   xmlns:cc="http://creativecommons.org/ns#"
   xmlns:rdf="http://www.w3.org/1999/02/22-rdf-syntax-ns#"
   xmlns:svg="http://www.w3.org/2000/svg"
   xmlns="http://www.w3.org/2000/svg"
   xmlns:sodipodi="http://sodipodi.sourceforge.net/DTD/sodipodi-0.dtd"
   xmlns:inkscape="http://www.inkscape.org/namespaces/inkscape"
   sodipodi:docname="MISP_codeContributor.svg"
   inkscape:version="0.92.1 r15371"
   id="svg9131"
   version="1.1"
   viewBox="0 0 123.17497 114.51722"
   height="114.51722mm"
   width="123.17497mm">
  <defs
     id="defs9125">
    <clipPath
       id="clipPath312"
       clipPathUnits="userSpaceOnUse">
      <path
         id="path314"
         d="M 0,0 H 595.276 V 841.89 H 0 Z"
         inkscape:connector-curvature="0" />
    </clipPath>
    <clipPath
       id="clipPath1086"
       clipPathUnits="userSpaceOnUse">
      <path
         id="path1088"
         d="M 0,0 H 595.276 V 841.89 H 0 Z"
         inkscape:connector-curvature="0" />
    </clipPath>
    <clipPath
       id="clipPath844"
       clipPathUnits="userSpaceOnUse">
      <path
         id="path846"
         d="M 0,0 H 595.276 V 841.89 H 0 Z"
         inkscape:connector-curvature="0" />
    </clipPath>
    <clipPath
       id="clipPath820"
       clipPathUnits="userSpaceOnUse">
      <path
         id="path822"
         d="M 0,0 H 595.276 V 841.89 H 0 Z"
         inkscape:connector-curvature="0" />
    </clipPath>
    <clipPath
       id="clipPath536"
       clipPathUnits="userSpaceOnUse">
      <path
         id="path538"
         d="M 0,0 H 595.276 V 841.89 H 0 Z"
         inkscape:connector-curvature="0" />
    </clipPath>
    <clipPath
       id="clipPath516"
       clipPathUnits="userSpaceOnUse">
      <path
         id="path518"
         d="M 0,0 H 595.276 V 841.89 H 0 Z"
         inkscape:connector-curvature="0" />
    </clipPath>
    <clipPath
       id="clipPath1064"
       clipPathUnits="userSpaceOnUse">
      <path
         id="path1066"
         d="M 0,0 H 595.276 V 841.89 H 0 Z"
         inkscape:connector-curvature="0" />
    </clipPath>
    <clipPath
       id="clipPath312-3"
       clipPathUnits="userSpaceOnUse">
      <path
         id="path314-8"
         d="M 0,0 H 595.276 V 841.89 H 0 Z"
         inkscape:connector-curvature="0" />
    </clipPath>
    <clipPath
       id="clipPath312-3-6"
       clipPathUnits="userSpaceOnUse">
      <path
         id="path314-8-6"
         d="M 0,0 H 595.276 V 841.89 H 0 Z"
         inkscape:connector-curvature="0" />
    </clipPath>
    <clipPath
       id="clipPath312-7"
       clipPathUnits="userSpaceOnUse">
      <path
         id="path314-0"
         d="M 0,0 H 595.276 V 841.89 H 0 Z"
         inkscape:connector-curvature="0" />
    </clipPath>
    <clipPath
       id="clipPath312-3-3"
       clipPathUnits="userSpaceOnUse">
      <path
         id="path314-8-67"
         d="M 0,0 H 595.276 V 841.89 H 0 Z"
         inkscape:connector-curvature="0" />
    </clipPath>
  </defs>
  <sodipodi:namedview
     inkscape:window-maximized="1"
     inkscape:window-y="24"
     inkscape:window-x="65"
     inkscape:window-height="1056"
     inkscape:window-width="1855"
     inkscape:pagecheckerboard="true"
     showgrid="false"
     inkscape:current-layer="layer1"
     inkscape:document-units="mm"
     inkscape:cy="340.85829"
     inkscape:cx="-15.709017"
     inkscape:zoom="0.98994949"
     inkscape:pageshadow="2"
     inkscape:pageopacity="0.0"
     borderopacity="1.0"
     bordercolor="#666666"
     pagecolor="#ffffff"
     id="base" />
  <metadata
     id="metadata9128">
    <rdf:RDF>
      <cc:Work
         rdf:about="">
        <dc:format>image/svg+xml</dc:format>
        <dc:type
           rdf:resource="http://purl.org/dc/dcmitype/StillImage" />
        <dc:title></dc:title>
      </cc:Work>
    </rdf:RDF>
  </metadata>
  <g
     inkscape:label="Layer 1"
     inkscape:groupmode="layer"
     id="layer1"
     transform="translate(-41.489305,-34.182609)">
    <path
       id="path4519"
       d="m 141.77694,120.43026 c 0,0 0,-36.407008 0,-47.828812 0,-11.421803 -11.4218,-22.843611 -22.84361,-22.843611 -7.61451,0 -7.61451,0 -7.61451,0 V 34.528771 L 88.475209,57.372379 111.31882,80.215982 V 64.98691 c 0,0 3.80725,0 7.61451,0 3.80728,0 7.61455,3.807269 7.61455,7.614538 0,3.807266 0,47.828812 0,47.828812 -4.52114,2.6175 -7.61455,7.49556 -7.61455,13.08747 0,8.44738 6.7817,15.22908 15.22908,15.22908 8.44737,0 15.22907,-6.7817 15.22907,-15.22908 0,-5.59191 -3.0934,-10.46997 -7.61454,-13.08747 z m -7.61453,20.70201 c -4.1642,0 -7.61453,-3.45034 -7.61453,-7.61454 0,-4.16418 3.45033,-7.61454 7.61453,-7.61454 4.16421,0 7.61453,3.45036 7.61453,7.61454 0,4.1642 -3.45032,7.61454 -7.61453,7.61454 z M 73.24614,42.143304 c -8.447376,0 -15.229073,6.781699 -15.229073,15.229075 0,5.591924 3.093405,10.46998 7.614535,13.087482 v 49.851409 c -4.52113,2.61751 -7.614535,7.49557 -7.614535,13.0875 0,8.44738 6.781697,15.22906 15.229073,15.22906 8.447373,0 15.229069,-6.78168 15.229069,-15.22906 0,-5.59193 -3.093406,-10.46999 -7.614534,-13.0875 V 70.459861 c 4.521128,-2.617502 7.614534,-7.495558 7.614534,-13.087482 0,-8.447376 -6.781696,-15.229075 -15.229069,-15.229075 z m 0,98.988966 c -4.1642,0 -7.614538,-3.45034 -7.614538,-7.61454 0,-4.16418 3.450338,-7.61454 7.614538,-7.61454 4.164197,0 7.614535,3.45036 7.614535,7.61454 0,4.1642 -3.450338,7.61454 -7.614535,7.61454 z m 0,-76.14536 c -4.1642,0 -7.614538,-3.450332 -7.614538,-7.614531 0,-4.1642 3.450338,-7.614542 7.614538,-7.614542 4.164197,0 7.614535,3.450342 7.614535,7.614542 0,4.164199 -3.450338,7.614531 -7.614535,7.614531 z"
       inkscape:connector-curvature="0"
       style="opacity:1;fill:#5f6062;fill-opacity:1;stroke-width:0.1189771" />
    <g
       style="fill:#2fa1db;fill-opacity:1"
       clip-path="url(#clipPath312-3-3)"
       id="g310-6-5"
       transform="matrix(0.19487456,0,0,-0.19487456,43.704489,196.77524)">
      <g
         style="fill:#2fa1db;fill-opacity:1"
         transform="translate(385.579,529.5928)"
         id="g316-3-3">
        <path
           inkscape:connector-curvature="0"
           id="path318-4-5"
           style="fill:#2fa1db;fill-opacity:1;fill-rule:nonzero;stroke:none"
           d="m 0,0 h -5.184 v -56.985 c 0,-8.879 -5.16,-16.902 -15.523,-16.902 h -101.465 v -2.709 c 0,-7.851 8.922,-15.763 18.084,-15.763 h 77.581 l 29.678,-17.449 -4.31,17.449 H 0 c 9.156,0 13.287,7.906 13.287,15.763 v 63.068 C 13.287,-5.683 9.156,0 0,0" />
      </g>
      <g
         style="fill:#2fa1db;fill-opacity:1"
         transform="translate(349.7253,569.1839)"
         id="g320-9-6">
        <path
           inkscape:connector-curvature="0"
           id="path322-7-2"
           style="fill:#2fa1db;fill-opacity:1;fill-rule:nonzero;stroke:none"
           d="m 0,0 h -117.85 c -10.369,0 -22.301,-9.211 -22.301,-18.09 v -71.424 c 0,-8.177 10.11,-14.082 19.807,-14.987 l -6.311,-23.958 40.441,23.786 H 0 c 10.363,0 19.937,6.286 19.937,15.159 v 57.786 13.638 C 19.937,-9.211 10.363,0 0,0 m -99.871,-60.292 c -5.88,0 -10.645,4.766 -10.645,10.646 0,5.88 4.765,10.646 10.645,10.646 5.874,0 10.646,-4.766 10.646,-10.646 0,-5.88 -4.772,-10.646 -10.646,-10.646 m 39.764,0 c -5.88,0 -10.646,4.766 -10.646,10.646 0,5.88 4.766,10.646 10.646,10.646 5.88,0 10.646,-4.766 10.646,-10.646 0,-5.88 -4.766,-10.646 -10.646,-10.646 m 39.77,0 c -5.881,0 -10.652,4.766 -10.652,10.646 0,5.88 4.771,10.646 10.652,10.646 5.868,0 10.645,-4.766 10.645,-10.646 0,-5.88 -4.777,-10.646 -10.645,-10.646" />
      </g>
    </g>
  </g>
</svg>
