<?xml version="1.0" encoding="UTF-8" standalone="no"?>
<!-- Created with Inkscape (http://www.inkscape.org/) -->

<svg
   xmlns:dc="http://purl.org/dc/elements/1.1/"
   xmlns:cc="http://creativecommons.org/ns#"
   xmlns:rdf="http://www.w3.org/1999/02/22-rdf-syntax-ns#"
   xmlns:svg="http://www.w3.org/2000/svg"
   xmlns="http://www.w3.org/2000/svg"
   xmlns:sodipodi="http://sodipodi.sourceforge.net/DTD/sodipodi-0.dtd"
   xmlns:inkscape="http://www.inkscape.org/namespaces/inkscape"
   width="128px"
   height="128px"
   viewBox="0 0 128 128"
   version="1.1"
   id="SVGRoot"
   inkscape:version="0.92.1 r15371"
   sodipodi:docname="12.svg">
  <sodipodi:namedview
     id="base"
     pagecolor="#ffffff"
     bordercolor="#666666"
     borderopacity="1.0"
     inkscape:pageopacity="0.0"
     inkscape:pageshadow="2"
     inkscape:zoom="2"
     inkscape:cx="64"
     inkscape:cy="44"
     inkscape:document-units="px"
     inkscape:current-layer="layer1"
     showgrid="false"
     inkscape:window-width="1855"
     inkscape:window-height="1056"
     inkscape:window-x="65"
     inkscape:window-y="24"
     inkscape:window-maximized="1"
     inkscape:grid-bbox="true" />
  <defs
     id="defs335" />
  <metadata
     id="metadata338">
    <rdf:RDF>
      <cc:Work
         rdf:about="">
        <dc:format>image/svg+xml</dc:format>
        <dc:type
           rdf:resource="http://purl.org/dc/dcmitype/StillImage" />
        <dc:title></dc:title>
      </cc:Work>
    </rdf:RDF>
  </metadata>
  <g
     id="layer1"
     inkscape:groupmode="layer"
     inkscape:label="Layer 1">
    <path
       style="fill:#151515;stroke-width:1.00130212"
       d="m 2.6752408,89.532877 c 0.00257,-0.413037 4.2448526,-5.822961 9.4272882,-12.022054 9.593178,-11.475108 9.562596,-11.418725 16.9695,-31.284262 1.340733,-3.595887 3.031325,-6.508464 3.777806,-6.508464 0.823391,0 3.308647,5.341981 6.362939,13.676942 4.85887,13.259536 5.286855,13.99982 14.023545,24.256514 4.956446,5.818765 9.708694,10.59085 10.56055,10.604634 0.851858,0.01379 5.744362,-5.057323 10.87223,-11.269128 8.776929,-10.632208 9.605623,-12.04565 14.138474,-24.114931 2.648291,-7.051407 5.085319,-13.090985 5.415617,-13.421283 1.229046,-1.229045 2.697451,1.706565 7.10503,14.204259 4.43124,12.564771 4.71278,13.044933 14.01165,23.896769 5.21926,6.090895 9.48955,11.44732 9.48955,11.903167 0,1.16391 -0.83125,1.082518 -16.24772,-1.590898 L 94.837247,85.480673 82.047199,87.862277 C 66.149031,90.822638 63.554215,90.82136 46.388103,87.844722 L 32.530772,85.441832 19.448656,87.862844 C 5.5049689,90.443299 2.66781,90.725779 2.6752408,89.532877 Z"
       id="path582"
       inkscape:connector-curvature="0" />
  </g>
</svg>
