<?xml version="1.0" encoding="UTF-8" standalone="no"?>
<!-- Created with Inkscape (http://www.inkscape.org/) -->

<svg
   xmlns:dc="http://purl.org/dc/elements/1.1/"
   xmlns:cc="http://creativecommons.org/ns#"
   xmlns:rdf="http://www.w3.org/1999/02/22-rdf-syntax-ns#"
   xmlns:svg="http://www.w3.org/2000/svg"
   xmlns="http://www.w3.org/2000/svg"
   xmlns:sodipodi="http://sodipodi.sourceforge.net/DTD/sodipodi-0.dtd"
   xmlns:inkscape="http://www.inkscape.org/namespaces/inkscape"
   width="128px"
   height="128px"
   viewBox="0 0 128 128"
   version="1.1"
   id="SVGRoot"
   inkscape:version="0.92.1 r15371"
   sodipodi:docname="16.svg">
  <sodipodi:namedview
     id="base"
     pagecolor="#ffffff"
     bordercolor="#666666"
     borderopacity="1.0"
     inkscape:pageopacity="0.0"
     inkscape:pageshadow="2"
     inkscape:zoom="2"
     inkscape:cx="64"
     inkscape:cy="44"
     inkscape:document-units="px"
     inkscape:current-layer="layer1"
     showgrid="false"
     inkscape:window-width="1855"
     inkscape:window-height="1056"
     inkscape:window-x="65"
     inkscape:window-y="24"
     inkscape:window-maximized="1"
     inkscape:grid-bbox="true" />
  <defs
     id="defs335" />
  <metadata
     id="metadata338">
    <rdf:RDF>
      <cc:Work
         rdf:about="">
        <dc:format>image/svg+xml</dc:format>
        <dc:type
           rdf:resource="http://purl.org/dc/dcmitype/StillImage" />
        <dc:title></dc:title>
      </cc:Work>
    </rdf:RDF>
  </metadata>
  <g
     id="layer1"
     inkscape:groupmode="layer"
     inkscape:label="Layer 1">
    <path
       style="fill:#323232;stroke-width:1.00130212"
       d="M 54.737621,123.35879 C 50.331892,120.73567 39.517829,114.40555 30.706371,109.29184 21.894912,104.17813 13.440145,99.125961 11.917997,98.064801 L 9.1504571,96.135421 9.4147417,64.422202 9.6790265,32.708983 19.191397,27.085754 C 24.4232,23.992979 34.336091,18.179372 41.220043,14.166627 48.103995,10.153882 55.803403,5.5876064 58.32984,4.019347 c 2.526436,-1.5682595 5.06533,-2.8513808 5.641985,-2.8513808 0.576655,0 3.240723,1.380006 5.920151,3.06668 2.679429,1.686674 14.333993,8.4859108 25.899032,15.1094168 11.565042,6.623506 21.590572,12.764289 22.278972,13.646183 0.9381,1.201795 1.25163,9.157544 1.25163,31.760404 0,22.60286 -0.31353,30.558609 -1.25163,31.760404 -0.6884,0.881895 -10.71393,7.022676 -22.278972,13.646186 -11.565039,6.6235 -23.219603,13.42274 -25.899032,15.10942 -2.679428,1.68667 -5.382944,3.02048 -6.007812,2.96404 -0.624869,-0.0565 -4.740813,-2.24881 -9.146543,-4.87191 z m 32.485648,-14.3904 C 100.00067,101.62197 111.32345,94.867591 112.385,93.95866 c 1.81913,-1.557594 1.9301,-3.236748 1.9301,-29.20801 0,-25.985312 -0.11015,-27.649712 -1.93295,-29.21045 C 111.31903,34.629928 99.977663,27.874888 87.179116,20.529001 L 63.909029,7.1728417 39.297283,21.468218 14.685537,35.763595 v 28.986516 28.986518 l 24.531902,14.285301 c 13.492546,7.85693 24.586418,14.28942 24.65305,14.29445 0.06664,0.005 10.575383,-6.00156 23.35278,-13.34799 z m -38.994111,-0.3599 C 40.243773,103.92071 30.21108,98.058199 25.934283,95.58071 L 18.158289,91.076184 18.424517,63.991707 18.690746,36.907229 40.218741,24.431613 c 11.840397,-6.86159 22.203874,-12.670356 23.029948,-12.908371 1.323306,-0.381279 41.206121,22.078827 45.428811,25.583347 1.43157,1.188094 1.63239,4.523398 1.63239,27.110825 0,23.276536 -0.16869,25.904025 -1.75228,27.293027 -2.3877,2.094308 -43.887087,25.832149 -44.955835,25.714949 -0.469555,-0.0515 -7.387233,-3.9291 -15.372617,-8.6169 z m 20.761976,0.86922 c 2.624175,-1.55912 10.628845,-6.13532 17.788155,-10.169325 7.15931,-4.034005 14.481331,-8.413609 16.271161,-9.732453 l 3.25423,-2.3979 V 64.354231 c 0,-20.472042 -0.18055,-22.98538 -1.75228,-24.391918 C 103.58865,39.099849 94.115013,33.375427 83.49988,27.241375 L 64.199638,16.088551 43.447796,27.907607 22.695954,39.726664 v 24.389729 24.38973 l 20.526693,11.886257 c 11.289681,6.53744 20.632571,11.89388 20.761976,11.90319 0.129407,0.009 2.382336,-1.25872 5.006511,-2.81786 z M 41.220043,91.805931 c 0,-0.815006 1.802344,-6.0058 4.005208,-11.535098 2.202865,-5.529299 4.005209,-10.888403 4.005209,-11.909121 0,-1.257092 -3.555549,-4.185767 -11.020386,-9.0774 -6.061213,-3.971852 -10.751821,-7.656096 -10.423575,-8.18721 0.37003,-0.598723 5.678221,-0.702102 13.969379,-0.27206 l 13.372567,0.693601 0.675508,-2.896366 c 2.672624,-11.45936 5.651885,-22.03073 6.427315,-22.80616 1.178758,-1.178758 2.238852,1.389886 5.566756,13.488436 1.452271,5.279711 3.011711,10.200119 3.465422,10.934238 0.667298,1.079711 3.347344,1.158733 14.025479,0.413546 7.260303,-0.50667 13.399194,-0.598357 13.641982,-0.203747 0.242787,0.394609 -2.84259,2.839894 -6.856396,5.433965 -13.598221,8.788359 -15.03503,9.797622 -15.425723,10.835552 -0.214575,0.570047 1.639068,6.173147 4.119206,12.451334 4.462569,11.296483 5.216047,14.125417 3.758365,14.110777 -0.413037,-0.0041 -5.184113,-3.608835 -10.602392,-8.010416 -5.418279,-4.401581 -10.297172,-8.002875 -10.841985,-8.002875 -0.544814,0 -5.399169,3.604687 -10.787456,8.010416 -5.388288,4.40573 -10.084345,8.010417 -10.435684,8.010417 -0.351339,0 -0.638799,-0.666823 -0.638799,-1.481829 z"
       id="path710"
       inkscape:connector-curvature="0" />
  </g>
</svg>
